<?xml version="1.0" standalone="no"?>
<!DOCTYPE svg PUBLIC "-//W3C//DTD SVG 20010904//EN"
 "http://www.w3.org/TR/2001/REC-SVG-20010904/DTD/svg10.dtd">
<svg version="1.0" xmlns="http://www.w3.org/2000/svg"
 width="225.000000pt" height="112.000000pt" viewBox="0 0 225.000000 112.000000"
 preserveAspectRatio="xMidYMid meet">
<metadata>
Created by potrace 1.10, written by Peter Selinger 2001-2011
</metadata>
<g transform="translate(0.000000,112.000000) scale(0.100000,-0.100000)"
fill="#000000" stroke="none">
<path d="M688 894 c-36 -19 -48 -43 -48 -99 0 -38 5 -52 29 -76 28 -27 34 -29
109 -29 64 0 84 4 105 20 59 47 56 143 -7 181 -39 24 -147 26 -188 3z m169
-46 c27 -25 30 -64 7 -96 -13 -19 -24 -22 -80 -22 -51 0 -68 4 -84 20 -27 27
-25 66 5 95 33 34 117 36 152 3z"/>
<path d="M950 798 l0 -113 100 3 c92 3 100 5 100 23 0 19 -6 20 -77 18 l-77
-2 3 91 3 92 -26 0 -26 0 0 -112z"/>
<path d="M1226 802 c-36 -61 -66 -112 -66 -114 0 -3 13 -3 29 0 24 3 37 17 73
78 24 41 46 74 49 74 3 0 11 -11 17 -25 11 -23 9 -25 -11 -25 -23 0 -47 -17
-47 -32 0 -4 22 -8 50 -8 44 0 51 -3 64 -29 11 -20 25 -30 46 -33 16 -3 30 -2
30 1 -1 3 -29 53 -64 111 -43 72 -69 106 -83 108 -17 3 -34 -18 -87 -106z"/>
<path d="M1480 800 l0 -110 108 0 c93 0 111 3 125 18 19 21 22 63 6 79 -8 8
-8 13 0 17 12 8 15 55 3 72 -16 25 -56 34 -146 34 l-96 0 0 -110z m200 55 c21
-25 1 -35 -71 -35 -62 0 -69 -2 -69 -20 0 -18 7 -20 58 -20 61 0 106 -20 87
-38 -5 -6 -43 -12 -82 -14 l-73 -4 0 73 0 73 69 0 c48 0 72 -4 81 -15z"/>
<path d="M1782 894 c-27 -19 -29 -64 -4 -87 14 -13 38 -17 94 -17 79 0 107
-13 94 -45 -4 -12 -25 -15 -106 -15 -97 0 -100 -1 -100 -22 0 -23 2 -23 107
-20 122 4 143 14 143 67 0 52 -29 70 -117 72 -82 2 -88 4 -80 28 5 12 25 15
97 15 83 0 90 1 90 20 0 19 -7 20 -98 20 -72 0 -103 -4 -120 -16z"/>
<path d="M205 885 c-3 -8 -7 -22 -10 -30 -3 -12 -9 -13 -29 -3 -22 9 -31 7
-61 -13 -19 -13 -40 -37 -46 -52 -10 -24 -9 -31 11 -52 13 -14 30 -25 39 -25
12 0 12 -3 3 -12 -19 -19 -14 -73 10 -104 12 -16 23 -31 25 -33 6 -9 32 22 27
31 -4 6 -10 5 -15 -3 -7 -11 -9 -10 -9 4 0 10 -4 16 -9 13 -5 -3 -12 1 -15 10
-5 13 1 12 30 -5 19 -12 39 -19 44 -16 9 6 8 31 -3 41 -11 12 -8 42 6 47 9 4
9 6 -1 6 -8 1 -17 -9 -20 -21 -6 -23 -6 -23 -12 2 l-6 25 -6 -27 c-3 -15 -2
-27 1 -26 23 2 34 -3 25 -12 -19 -19 -46 0 -41 29 5 23 4 24 -8 8 -18 -25 -26
-21 -15 9 6 14 8 30 4 35 -3 5 0 9 5 9 6 0 11 -8 11 -17 0 -11 3 -14 8 -8 8
12 36 11 67 0 16 -7 18 -6 8 6 -7 7 -13 18 -13 23 0 6 6 4 13 -4 7 -9 19 -15
27 -15 8 0 18 -4 23 -10 4 -6 10 -5 17 5 6 9 10 11 10 3 0 -7 -9 -17 -21 -23
-11 -7 -18 -14 -15 -17 3 -3 12 0 20 6 8 7 19 10 25 7 5 -3 7 2 4 12 -3 13 1
19 14 19 27 0 34 -19 16 -39 -23 -25 -10 -33 22 -12 25 16 26 16 40 -2 22 -29
18 -50 -5 -23 -24 29 -27 13 -3 -20 12 -18 13 -23 2 -19 -8 2 -18 14 -24 26
-5 12 -13 22 -17 22 -15 0 -8 -17 17 -44 13 -14 20 -26 15 -26 -5 0 -12 5 -15
10 -3 6 -16 10 -28 10 -14 0 -18 3 -10 8 8 5 9 13 3 22 -7 11 -11 9 -19 -13
-6 -15 -15 -28 -21 -28 -5 -1 -16 -2 -22 -3 -7 0 -14 -9 -16 -19 -4 -18 17
-20 30 -2 5 6 8 4 8 -5 1 -8 5 -5 11 8 5 13 13 20 19 17 13 -8 13 -38 -1 -52
-12 -12 -1 -65 12 -57 5 3 9 -1 9 -9 0 -16 -24 -30 -34 -20 -3 4 -6 18 -6 32
0 28 -15 59 -25 50 -3 -4 -2 -17 3 -30 12 -31 3 -91 -12 -86 -6 2 -11 26 -10
60 1 31 -3 54 -7 51 -5 -3 -9 2 -9 11 0 9 -4 14 -9 11 -4 -3 -5 -24 -1 -46 5
-26 4 -40 -3 -40 -7 0 -7 -4 1 -12 14 -14 16 -32 2 -23 -6 3 -7 -1 -4 -10 4
-10 2 -15 -7 -13 -7 2 -15 -9 -19 -27 -3 -16 -8 -29 -12 -27 -5 1 -14 5 -22 8
-29 11 -26 34 7 51 18 10 33 26 33 35 1 10 -2 15 -7 12 -5 -3 -9 0 -9 5 0 6 5
11 10 11 12 0 12 57 0 85 -7 17 -9 15 -9 -11 -1 -39 -26 -112 -47 -135 -11
-12 -12 -22 -4 -43 5 -15 14 -25 19 -21 6 3 14 -3 20 -12 6 -10 11 -14 11 -10
0 13 30 -20 30 -33 0 -7 17 -10 48 -8 38 2 49 7 57 25 9 22 24 31 26 16 0 -5
2 -18 3 -30 2 -18 0 -20 -11 -12 -9 8 -13 8 -13 0 0 -6 -3 -10 -7 -10 -20 3
-44 -2 -40 -8 3 -5 -5 -8 -18 -8 -13 0 -21 3 -18 8 2 4 -8 7 -24 8 -40 1 -74
7 -105 20 -23 9 -28 18 -28 46 0 20 4 32 10 28 5 -3 10 3 10 14 0 12 5 21 11
21 6 0 9 7 5 15 -3 9 0 15 8 15 14 0 28 92 19 117 -11 29 -21 10 -19 -38 2
-39 -1 -52 -15 -60 -17 -8 -37 -45 -53 -92 -8 -24 19 -87 37 -87 8 0 17 -7 21
-15 4 -12 29 -15 136 -15 119 0 131 2 142 20 7 11 18 20 24 20 16 0 43 58 37
81 -3 10 -11 24 -19 30 -8 6 -14 20 -14 30 0 10 -9 21 -20 24 -11 3 -21 14
-21 23 -4 49 6 102 28 144 16 30 23 57 19 71 -4 16 3 30 26 54 22 23 29 36 23
50 -5 10 -7 22 -6 26 1 5 -8 11 -19 14 -11 3 -20 9 -20 14 0 4 -9 13 -20 19
-15 8 -26 7 -45 -6 -23 -15 -25 -15 -31 2 -13 45 -21 49 -83 52 -48 2 -62 0
-66 -13z m50 -5 c-3 -5 0 -10 9 -10 8 0 16 5 18 11 2 7 13 9 26 5 12 -4 20
-12 16 -17 -3 -6 2 -16 11 -23 16 -12 16 -13 1 -19 -9 -4 -16 -14 -16 -23 0
-12 -6 -15 -24 -10 -14 3 -28 1 -31 -5 -5 -6 -12 -3 -22 10 -16 23 -34 28 -30
9 4 -22 40 -37 76 -32 29 4 32 2 21 -11 -14 -17 -56 -20 -65 -5 -3 6 -12 10
-18 10 -19 -1 33 -40 53 -40 24 0 53 29 46 45 -2 7 2 21 10 32 14 17 15 16 10
-14 -3 -20 -1 -33 8 -36 8 -3 12 5 12 27 -1 17 2 31 5 31 3 0 13 6 22 14 9 7
24 10 33 7 16 -6 16 -8 -1 -20 -10 -7 -28 -11 -39 -9 -12 2 -8 -2 9 -10 31
-15 50 -13 40 4 -4 5 1 9 10 9 10 0 15 -7 13 -17 -2 -12 3 -17 15 -15 19 3 23
-13 5 -24 -6 -4 -14 -2 -16 4 -2 7 -14 12 -27 12 -13 0 -27 5 -30 10 -9 15
-22 12 -22 -4 0 -8 7 -12 16 -9 11 3 10 0 -3 -11 -11 -9 -24 -16 -29 -16 -5 0
-7 -6 -4 -12 2 -7 7 -24 11 -38 l7 -25 -15 25 c-9 14 -15 33 -16 44 0 15 -3
16 -15 6 -8 -7 -13 -15 -11 -19 2 -3 -16 -4 -40 -2 -48 3 -83 35 -85 75 0 20
-1 21 -8 1 -5 -11 -5 -28 0 -37 12 -23 11 -51 -1 -43 -6 4 -8 12 -4 18 3 7 -1
4 -9 -5 -11 -15 -17 -15 -31 -5 -16 12 -16 14 4 40 12 15 18 27 13 27 -4 0 -1
5 7 10 13 8 12 10 -2 10 -12 0 -18 -8 -19 -22 -1 -22 -1 -22 -8 1 -8 31 -32
41 -26 12 3 -12 7 -30 9 -40 4 -17 -20 -51 -27 -40 -1 2 -11 14 -21 27 l-20
22 43 42 c24 23 46 36 50 31 9 -15 51 -26 51 -14 0 6 7 11 15 11 12 0 13 4 5
19 -8 16 -6 20 13 24 12 2 23 5 25 6 2 0 0 -3 -3 -9z m191 -134 c10 -11 11
-17 3 -22 -6 -3 -15 -1 -19 7 -7 10 -11 10 -25 -1 -14 -12 -14 -15 5 -35 28
-30 25 -51 -4 -23 -24 23 -38 56 -23 57 4 0 15 7 23 16 19 19 22 19 40 1z
m-63 -251 c4 -63 13 -95 28 -95 4 0 6 8 3 18 -5 14 -4 15 5 2 6 -9 7 -18 1
-24 -14 -14 -57 30 -62 62 -3 15 -6 32 -8 37 -1 6 -2 28 -1 50 1 34 3 37 15
25 8 -8 16 -42 19 -75z m-23 -80 c8 -5 7 -12 -2 -23 -11 -13 -10 -15 8 -10 32
8 54 -15 58 -60 3 -35 0 -41 -18 -44 -17 -2 -25 7 -43 51 -17 41 -20 57 -12
68 9 10 8 13 -5 13 -9 0 -16 -5 -16 -11 0 -6 -7 -4 -15 5 -8 8 -15 17 -15 20
0 7 45 0 60 -9z m-42 -45 c27 -26 27 -31 1 -64 -25 -32 -49 -33 -78 -2 -16 17
-20 30 -15 50 3 14 10 23 15 20 5 -3 9 0 9 5 0 19 45 12 68 -9z m135 -21 c3
-11 3 -28 0 -37 -6 -13 -8 -13 -14 4 -11 27 -11 54 0 54 5 0 11 -9 14 -21z"/>
<path d="M244 849 c-4 -8 -3 -9 4 -5 7 4 12 3 12 -3 0 -5 -4 -11 -9 -13 -5 -1
-4 -8 3 -14 19 -17 59 6 46 26 -8 13 -10 12 -10 -2 0 -10 -4 -18 -10 -18 -5 0
-10 6 -10 14 0 20 -17 29 -26 15z"/>
<path d="M235 690 c-4 -6 -3 -10 1 -10 4 0 -1 -9 -11 -20 -11 -12 -13 -20 -6
-20 7 0 10 -4 7 -8 -3 -5 5 -7 17 -6 12 1 25 3 30 3 4 1 7 6 7 12 0 8 -5 8
-15 -1 -13 -11 -15 -10 -12 6 1 11 6 24 10 30 4 7 0 14 -8 18 -8 3 -17 1 -20
-4z"/>
<path d="M211 594 c-16 -18 -12 -23 19 -26 12 -2 25 3 28 11 3 8 0 11 -7 7 -6
-4 -11 -1 -11 8 0 20 -11 20 -29 0z"/>
<path d="M978 593 c199 -2 525 -2 725 0 199 1 36 2 -363 2 -399 0 -562 -1
-362 -2z"/>
<path d="M1862 534 c-19 -27 -20 -27 -26 -6 -4 12 -14 22 -22 22 -12 0 -11 -6
5 -29 12 -16 21 -41 21 -56 0 -16 4 -24 11 -20 5 4 8 14 6 23 -2 10 5 32 16
50 24 41 16 53 -11 16z"/>
<path d="M790 500 c0 -27 5 -50 10 -50 6 0 10 12 10 26 0 21 4 24 20 19 11 -4
20 -2 20 4 0 6 -9 11 -20 11 -30 0 -24 28 8 33 22 3 20 4 -10 6 l-38 1 0 -50z"/>
<path d="M1085 541 c3 -5 -5 -11 -17 -13 -19 -2 -23 -9 -23 -38 0 -31 3 -35
28 -38 26 -3 27 -2 27 47 0 29 -5 51 -11 51 -5 0 -8 -4 -4 -9z m-1 -40 c7 -11
-3 -41 -14 -41 -11 0 -21 30 -14 41 3 5 9 9 14 9 5 0 11 -4 14 -9z"/>
<path d="M1250 535 c0 -8 -6 -12 -13 -9 -19 7 -39 -20 -35 -48 2 -18 10 -24
35 -26 l31 -3 -1 50 c-1 28 -5 51 -9 51 -5 0 -8 -7 -8 -15z m-5 -48 c0 -26
-20 -25 -23 2 -3 16 1 22 10 19 7 -3 13 -12 13 -21z"/>
<path d="M1330 499 c0 -49 1 -50 28 -47 23 2 28 8 30 36 3 27 -1 35 -17 39
-12 3 -21 9 -21 14 0 5 -4 9 -10 9 -5 0 -10 -23 -10 -51z m45 -12 c0 -26 -20
-25 -23 2 -3 16 1 22 10 19 7 -3 13 -12 13 -21z"/>
<path d="M1530 500 c0 -51 19 -72 21 -22 1 27 1 27 8 3 10 -37 29 -36 40 1 l9
33 1 -32 c2 -54 21 -37 21 17 0 38 -4 50 -15 50 -9 0 -18 -12 -22 -30 -8 -43
-20 -45 -27 -5 -11 56 -36 46 -36 -15z"/>
<path d="M1768 538 c-10 -26 4 -88 19 -88 13 0 13 3 3 15 -7 8 -10 25 -7 37 7
27 -7 59 -15 36z"/>
<path d="M880 492 c0 -40 1 -42 30 -42 28 0 30 2 30 40 0 48 -17 54 -22 8 -3
-37 -23 -40 -23 -4 0 13 -3 28 -7 32 -5 4 -8 -11 -8 -34z"/>
<path d="M960 491 c0 -23 4 -41 9 -41 6 0 9 12 8 26 -1 15 4 29 11 31 8 3 12
-6 12 -26 0 -17 5 -31 11 -31 6 0 9 16 7 38 -3 32 -7 37 -30 40 -27 3 -28 1
-28 -37z"/>
<path d="M1130 516 c-20 -26 -8 -61 23 -64 15 -2 27 2 27 8 0 7 -8 9 -20 5
-11 -4 -20 -2 -20 4 0 6 8 11 18 11 26 0 33 10 21 31 -12 23 -32 24 -49 5z"/>
<path d="M1414 509 c17 -63 18 -69 7 -69 -6 0 -11 -4 -11 -10 0 -5 6 -10 14
-10 15 0 53 97 42 108 -4 3 -9 -4 -13 -16 -6 -25 -23 -30 -23 -8 0 8 -5 18
-12 22 -8 5 -9 0 -4 -17z"/>
<path d="M1650 510 c-16 -30 -3 -60 25 -60 13 0 27 5 31 11 4 7 0 9 -14 5 -11
-4 -23 -2 -27 4 -4 6 4 10 19 10 28 0 34 18 14 38 -18 18 -36 15 -48 -8z"/>
<path d="M1730 491 c0 -23 5 -41 10 -41 6 0 10 15 10 34 0 19 -4 38 -10 41 -6
4 -10 -10 -10 -34z"/>
<path d="M1299 378 c-7 -13 -4 -98 2 -98 5 0 9 23 9 50 0 41 -5 61 -11 48z"/>
<path d="M580 325 c0 -25 4 -45 9 -45 4 0 7 12 5 28 l-4 27 12 -27 c7 -16 15
-28 20 -28 4 0 11 12 15 28 l7 27 7 -30 c6 -26 7 -23 8 18 1 54 -14 62 -27 15
-10 -34 -12 -32 -28 20 -8 29 -24 8 -24 -33z"/>
<path d="M880 325 c0 -29 4 -45 13 -45 8 0 11 13 10 37 -2 54 -2 53 -13 53 -5
0 -10 -20 -10 -45z"/>
<path d="M1137 357 c-3 -8 -2 -29 3 -48 7 -29 8 -30 9 -8 1 14 6 30 13 37 9 9
9 12 -2 12 -13 0 -13 2 0 10 13 8 13 10 -1 10 -9 0 -19 -6 -22 -13z"/>
<path d="M1210 325 l0 -45 38 1 c30 2 32 3 10 6 -16 2 -28 10 -28 18 0 8 12
16 28 18 l27 4 -27 2 c-17 0 -28 7 -28 15 0 8 12 17 28 19 22 3 20 4 -10 6
l-38 1 0 -45z"/>
<path d="M1464 339 c3 -17 6 -38 6 -45 0 -8 3 -14 8 -14 6 0 7 38 3 83 -1 4
-6 7 -12 7 -8 0 -9 -11 -5 -31z"/>
<path d="M2070 361 c0 -5 -9 -11 -20 -14 -15 -4 -20 -14 -20 -36 0 -26 4 -31
25 -31 23 0 25 4 25 45 0 25 -2 45 -5 45 -3 0 -5 -4 -5 -9z m-4 -57 c-5 -13
-10 -14 -18 -6 -6 6 -8 18 -4 28 5 13 10 14 18 6 6 -6 8 -18 4 -28z"/>
<path d="M710 316 c0 -20 5 -36 10 -36 6 0 10 14 10 30 0 17 5 30 10 30 6 0
10 -13 10 -30 0 -16 5 -30 11 -30 6 0 9 14 7 33 -2 27 -8 33 -30 35 -26 3 -28
1 -28 -32z"/>
<path d="M780 315 c0 -19 5 -35 10 -35 6 0 10 16 10 35 0 19 -4 35 -10 35 -5
0 -10 -16 -10 -35z"/>
<path d="M820 330 c0 -11 7 -20 15 -20 8 0 15 -5 15 -11 0 -6 -9 -8 -22 -4
-18 6 -20 4 -12 -5 14 -15 46 -10 52 8 2 7 -5 16 -17 19 -12 3 -21 10 -21 15
0 6 7 8 15 4 8 -3 15 -1 15 4 0 6 -9 10 -20 10 -13 0 -20 -7 -20 -20z"/>
<path d="M921 313 c1 -36 2 -36 8 -9 8 41 27 43 40 5 9 -25 8 -34 -1 -40 -7
-4 -9 -11 -5 -15 12 -12 30 13 43 56 12 41 1 58 -12 18 l-7 -23 -8 23 c-6 15
-17 22 -34 22 -22 0 -25 -4 -24 -37z"/>
<path d="M1064 336 c-11 -29 0 -51 26 -51 21 0 25 5 25 30 0 24 -5 31 -23 33
-13 2 -24 -3 -28 -12z m43 -30 c-4 -9 -11 -16 -17 -16 -11 0 -14 33 -3 43 11
11 26 -10 20 -27z"/>
<path d="M1337 344 c-4 -4 -7 -20 -7 -36 0 -23 4 -28 25 -28 14 0 25 4 25 10
0 5 -6 7 -14 4 -8 -3 -17 -1 -21 5 -3 7 3 11 15 11 15 0 20 5 18 17 -3 19 -29
29 -41 17z"/>
<path d="M1407 344 c-4 -4 -7 -20 -7 -36 0 -23 4 -28 25 -28 17 0 25 5 25 18
0 14 -2 15 -10 2 -12 -20 -35 2 -26 25 5 15 9 15 23 4 14 -12 16 -12 11 1 -5
17 -30 25 -41 14z"/>
<path d="M1500 315 c0 -19 4 -35 9 -35 6 0 9 12 8 28 -1 17 3 26 11 25 6 -2
12 2 12 7 0 6 -9 10 -20 10 -16 0 -20 -7 -20 -35z"/>
<path d="M1544 325 c-8 -31 6 -48 32 -43 29 5 26 62 -3 66 -17 3 -24 -3 -29
-23z m43 -19 c-4 -9 -11 -16 -17 -16 -11 0 -14 33 -3 43 11 11 26 -10 20 -27z"/>
<path d="M1618 316 c-2 -20 -1 -36 3 -36 4 0 9 11 11 25 4 33 24 32 21 -1 -1
-13 3 -24 8 -24 6 0 9 15 7 33 -2 24 -8 33 -24 35 -18 3 -22 -3 -26 -32z"/>
<path d="M1727 344 c-4 -4 -7 -20 -7 -36 0 -23 4 -28 25 -28 17 0 25 5 25 18
0 14 -2 15 -10 2 -12 -20 -35 2 -26 25 5 15 9 15 23 4 14 -12 16 -12 11 1 -5
17 -30 25 -41 14z"/>
<path d="M1784 339 c-4 -7 4 -20 17 -31 l24 -19 -25 6 c-19 6 -22 5 -14 -5 14
-15 46 -10 52 8 2 7 -5 16 -17 19 -12 3 -21 9 -21 14 0 5 7 6 15 3 8 -4 15 -1
15 5 0 14 -37 14 -46 0z"/>
<path d="M1884 339 c-5 -9 -1 -11 14 -7 12 4 22 3 22 -2 0 -4 -9 -10 -21 -13
-29 -8 -19 -31 15 -35 26 -3 27 -1 24 30 -2 25 -8 34 -25 36 -11 2 -24 -2 -29
-9z"/>
<path d="M1958 316 c-2 -20 -1 -36 3 -36 4 0 9 11 11 25 4 33 24 32 21 -1 -1
-13 3 -24 8 -24 6 0 9 15 7 33 -2 24 -8 33 -24 35 -18 3 -22 -3 -26 -32z"/>
<path d="M114 325 c-8 -21 3 -34 25 -28 10 3 30 -1 42 -7 23 -12 23 -11 7 5
-9 10 -28 18 -41 18 -18 0 -24 4 -20 13 3 8 2 14 -1 14 -4 0 -9 -7 -12 -15z"/>
<path d="M680 184 c0 -32 3 -54 7 -50 10 10 12 96 2 102 -5 3 -9 -21 -9 -52z"/>
<path d="M1779 233 c-5 -28 -3 -93 4 -93 4 0 7 23 7 50 0 28 -2 50 -5 50 -3 0
-6 -3 -6 -7z"/>
<path d="M788 219 c-6 -19 4 -79 13 -79 5 0 6 7 3 15 -4 8 -3 23 1 33 5 9 9
23 11 30 3 15 -23 16 -28 1z"/>
<path d="M1118 218 c-7 -16 2 -78 11 -78 7 0 7 78 -1 85 -3 3 -8 0 -10 -7z"/>
<path d="M1365 223 c17 -3 20 -10 17 -42 -2 -21 1 -42 7 -45 7 -5 11 8 11 38
0 34 4 46 18 49 9 3 -3 5 -28 4 -25 0 -36 -2 -25 -4z"/>
<path d="M1560 185 c0 -25 5 -45 11 -45 5 0 7 5 4 10 -8 13 4 50 16 50 5 0 9
-13 9 -30 0 -16 4 -30 8 -30 4 0 6 16 4 35 -3 27 -9 35 -24 35 -10 0 -16 5
-13 10 3 6 1 10 -4 10 -6 0 -11 -20 -11 -45z"/>
<path d="M410 214 c0 -6 5 -15 11 -21 8 -8 7 -13 -2 -18 -8 -5 -10 -4 -5 3 5
9 -8 12 -46 11 -35 0 -47 -3 -33 -8 18 -7 18 -8 1 -18 -12 -7 -15 -13 -7 -17
6 -4 11 -1 11 6 0 10 3 9 11 -2 8 -11 12 -12 16 -3 3 9 10 10 24 3 13 -7 19
-7 19 0 0 5 8 10 18 10 14 0 15 -2 2 -10 -13 -8 -12 -10 3 -10 24 0 22 42 -3
65 -11 10 -20 14 -20 9z"/>
<path d="M225 200 c4 -6 -18 -10 -57 -10 -56 0 -64 -2 -65 -20 -1 -11 2 -22 8
-25 5 -4 9 -3 9 2 0 4 14 9 32 10 17 1 36 8 41 15 6 9 7 8 3 -4 -3 -10 -1 -20
4 -23 6 -4 10 4 11 17 0 22 1 22 9 3 5 -11 9 -15 9 -10 1 6 5 3 11 -5 5 -8 13
-11 17 -6 4 4 0 14 -11 21 -18 13 -18 14 2 12 12 0 19 -3 17 -6 -6 -5 15 -31
25 -31 4 0 8 11 8 25 0 19 -6 25 -24 25 -12 0 -26 5 -29 10 -3 6 -11 10 -16
10 -6 0 -7 -4 -4 -10z"/>
<path d="M720 192 c0 -11 -3 -27 -6 -36 -3 -9 -1 -16 4 -16 6 0 12 11 14 25 4
33 24 32 21 -1 -1 -13 3 -24 8 -24 6 0 9 15 7 33 -2 24 -8 33 -25 35 -17 3
-23 -2 -23 -16z"/>
<path d="M831 196 c-19 -23 -4 -58 22 -54 17 2 22 10 22 33 0 34 -24 45 -44
21z m36 -30 c-4 -9 -11 -16 -17 -16 -11 0 -14 33 -3 44 11 10 26 -11 20 -28z"/>
<path d="M898 175 c-2 -19 0 -35 4 -35 4 0 8 11 8 25 0 14 5 25 10 25 6 0 10
5 10 10 0 6 -6 10 -14 10 -8 0 -15 -14 -18 -35z"/>
<path d="M940 174 c0 -19 5 -34 11 -34 6 0 9 7 5 15 -7 20 3 47 16 39 5 -3 7
-17 4 -30 -4 -14 -2 -24 4 -24 5 0 10 11 10 24 0 14 5 28 10 31 6 4 10 -7 10
-24 0 -17 4 -31 8 -31 4 0 6 15 4 34 -4 32 -6 34 -43 34 -38 1 -39 0 -39 -34z"/>
<path d="M1045 200 c-5 -9 -1 -10 14 -5 11 3 21 2 21 -3 0 -5 -9 -12 -20 -15
-33 -9 -25 -37 11 -37 28 0 30 2 27 33 -2 24 -8 33 -25 35 -11 2 -24 -2 -28
-8z"/>
<path d="M1150 175 c0 -19 5 -35 10 -35 6 0 10 16 10 35 0 19 -4 35 -10 35 -5
0 -10 -16 -10 -35z"/>
<path d="M1186 192 c-10 -30 4 -53 28 -50 31 4 30 62 -1 66 -14 2 -23 -3 -27
-16z m41 -26 c-4 -9 -11 -16 -17 -16 -11 0 -14 33 -3 44 11 10 26 -11 20 -28z"/>
<path d="M1258 175 c-2 -19 -1 -35 3 -35 4 0 9 11 11 25 2 14 8 24 13 23 6 -2
9 -13 7 -25 -1 -12 2 -24 8 -28 6 -4 10 9 10 34 0 37 -3 41 -24 41 -20 0 -25
-6 -28 -35z"/>
<path d="M1431 196 c-20 -24 -9 -51 22 -54 15 -2 27 2 27 8 0 7 -8 9 -20 5
-11 -4 -20 -2 -20 4 0 6 9 11 21 11 14 0 19 5 17 17 -4 23 -31 28 -47 9z"/>
<path d="M1507 203 c-4 -3 -7 -19 -7 -35 0 -23 4 -28 25 -28 14 0 25 4 25 9 0
5 -8 8 -17 7 -12 -1 -18 6 -18 19 0 14 6 19 19 17 11 -2 15 1 11 7 -7 12 -28
14 -38 4z"/>
<path d="M1630 176 c0 -20 5 -36 10 -36 6 0 10 14 10 30 0 17 5 30 10 30 6 0
10 -13 10 -30 0 -16 5 -30 11 -30 6 0 9 14 7 33 -2 27 -8 33 -30 35 -26 3 -28
1 -28 -32z"/>
<path d="M1704 196 c-11 -29 0 -51 26 -51 21 0 25 5 25 30 0 24 -5 31 -23 33
-13 2 -24 -3 -28 -12z m39 -9 c3 -8 1 -20 -4 -28 -8 -12 -10 -12 -18 0 -10 15
-4 41 9 41 4 0 10 -6 13 -13z"/>
<path d="M1806 192 c-10 -30 4 -53 28 -50 31 4 30 62 -1 66 -14 2 -23 -3 -27
-16z m41 -26 c-4 -9 -11 -16 -17 -16 -11 0 -14 33 -3 44 11 10 26 -11 20 -28z"/>
<path d="M1884 196 c-3 -8 -4 -29 -2 -48 2 -25 8 -33 23 -33 17 0 20 8 23 48
3 42 1 47 -18 47 -11 0 -23 -6 -26 -14z m32 -32 c-5 -13 -10 -14 -18 -6 -6 6
-8 18 -4 28 5 13 10 14 18 6 6 -6 8 -18 4 -28z"/>
<path d="M1951 183 c5 -15 8 -38 4 -50 -7 -31 13 -29 25 2 19 49 22 75 11 75
-6 0 -11 -10 -12 -22 l0 -23 -11 23 c-16 31 -30 28 -17 -5z"/>
</g>
</svg>
